<?xml version="1.0" encoding="utf-8"?>
<!-- Generator: Adobe Illustrator 23.0.5, SVG Export Plug-In . SVG Version: 6.00 Build 0)  -->
<svg version="1.1" id="Capa_1" xmlns="http://www.w3.org/2000/svg" xmlns:xlink="http://www.w3.org/1999/xlink" x="0px" y="0px"
	 viewBox="0 0 595.28 841.89" style="enable-background:new 0 0 595.28 841.89;" xml:space="preserve">
<style type="text/css">
	.st0{fill-rule:evenodd;clip-rule:evenodd;fill:#009FE3;}
</style>
<polygon class="st0" points="112.78,420.46 57.51,420.46 320.94,239.23 322.98,238.02 324.99,236.97 327.18,236.09 329.34,235.47 
	331.54,234.94 333.81,234.71 335.97,234.6 338.28,234.6 340.56,234.79 342.79,235.12 344.99,235.67 347.19,236.27 349.38,237.05 
	351.46,238.02 353.47,239.07 355.39,240.19 357.25,241.51 358.9,242.91 360.6,244.38 362.06,246.07 363.37,247.75 364.57,249.55 
	365.65,251.39 366.53,253.32 367.23,255.43 367.73,257.51 368,259.62 368.11,261.89 368,264.17 367.58,266.44 366.96,268.82 
	366.07,271.17 302.59,420.81 225.55,420.81 272.15,311.04 "/>
<polygon class="st0" points="537.76,420.94 537.76,420.94 502.31,420.92 445.08,311.09 398.45,420.84 321.4,420.84 391.12,257.28 
	392.51,254.26 393.97,251.46 395.67,248.87 397.29,246.51 399.1,244.52 400.91,242.7 402.8,241.02 404.84,239.63 406.89,238.39 
	408.85,237.44 410.97,236.55 413.05,235.94 415.25,235.52 417.37,235.17 419.57,235.07 421.65,235.07 423.73,235.17 425.85,235.52 
	427.97,235.87 429.93,236.4 431.98,237.09 433.87,237.78 435.72,238.69 437.56,239.54 439.18,240.59 440.84,241.63 442.17,242.56 
	442.3,242.66 "/>
</svg>
